<svg width="273" height="273" xmlns="http://www.w3.org/2000/svg" xmlns:xlink="http://www.w3.org/1999/xlink" xml:space="preserve" overflow="hidden"><defs><clipPath id="clip0"><rect x="856" y="196" width="273" height="273"/></clipPath></defs><g clip-path="url(#clip0)" transform="translate(-856 -196)"><path d="M1099.14 410.987 1063.59 375.441C1058.76 370.606 1052.22 368.9 1045.96 370.038L1033.45 357.525C1044.54 343.306 1051.08 325.106 1051.08 305.769 1051.08 258.847 1012.69 220.456 965.769 220.456 918.847 220.456 880.456 258.847 880.456 305.769 880.456 352.691 918.847 391.081 965.769 391.081 985.106 391.081 1003.02 384.541 1017.53 373.45L1030.04 385.963C1028.9 392.219 1030.61 398.759 1035.44 403.594L1070.99 439.141C1074.97 443.122 1080.09 445.112 1085.21 445.112 1090.32 445.112 1095.44 443.122 1099.43 439.141 1106.82 431.178 1106.82 418.666 1099.14 410.987ZM965.484 373.734C927.947 373.734 897.234 343.022 897.234 305.484 897.234 267.947 927.947 237.234 965.484 237.234 1003.02 237.234 1033.73 267.947 1033.73 305.484 1033.73 343.022 1003.02 373.734 965.484 373.734Z" stroke="#F7971E" stroke-width="2.84375" fill="#F7971E"/></g></svg>