<svg width="3071" height="2061" xmlns="http://www.w3.org/2000/svg" xmlns:xlink="http://www.w3.org/1999/xlink" xml:space="preserve" overflow="hidden"><defs><clipPath id="clip0"><rect x="148" y="60" width="3071" height="2061"/></clipPath></defs><g clip-path="url(#clip0)" transform="translate(-148 -60)"><rect x="150.5" y="62.5001" width="3066" height="2056" stroke="#000000" stroke-width="4.58333" stroke-miterlimit="8"/><path d="M630 1220C630 859.358 865.722 567 1156.5 567 1447.28 567 1683 859.358 1683 1220 1683 1580.64 1447.28 1873 1156.5 1873 865.722 1873 630 1580.64 630 1220Z" stroke="#D27D00" stroke-width="26.3542" stroke-miterlimit="8" fill="#F7971E" fill-rule="evenodd"/><path d="M901 1237.5C901 877.134 1082.77 585 1307 585 1531.23 585 1713 877.134 1713 1237.5 1713 1597.87 1531.23 1890 1307 1890 1082.77 1890 901 1597.87 901 1237.5Z" stroke="#D27D00" stroke-width="26.3542" stroke-miterlimit="8" fill="#F7971E" fill-rule="evenodd"/><path d="M1540 1210C1540 849.358 1775.72 557 2066.5 557 2357.28 557 2593 849.358 2593 1210 2593 1570.64 2357.28 1863 2066.5 1863 1775.72 1863 1540 1570.64 1540 1210Z" stroke="#D27D00" stroke-width="26.3542" stroke-miterlimit="8" fill="#F7971E" fill-rule="evenodd"/><path d="M1525 1217.5C1525 857.134 1706.77 565 1931 565 2155.23 565 2337 857.134 2337 1217.5 2337 1577.87 2155.23 1870 1931 1870 1706.77 1870 1525 1577.87 1525 1217.5Z" stroke="#D27D00" stroke-width="26.3542" stroke-miterlimit="8" fill="#F7971E" fill-rule="evenodd"/><path d="M1269 1265C1269 904.358 1425.7 612 1619 612 1812.3 612 1969 904.358 1969 1265 1969 1625.64 1812.3 1918 1619 1918 1425.7 1918 1269 1625.64 1269 1265Z" stroke="#D27D00" stroke-width="26.3542" stroke-miterlimit="8" fill="#F7971E" fill-rule="evenodd"/><path d="M1487.72 121.147C1470.3 123.356 1443.61 134.181 1428.17 141.029 1412.74 147.876 1401.05 154.725 1395.09 162.235 1389.14 169.746 1389.8 177.919 1392.45 186.093 1395.09 194.266 1402.37 203.544 1410.97 211.276 1419.57 219.008 1430.6 224.31 1444.05 232.483 1457.5 240.657 1479.56 251.702 1491.69 260.317 1503.82 268.932 1507.57 270.7 1516.83 284.175 1526.09 297.65 1540.21 326.147 1547.26 341.168 1554.32 356.19 1555.2 359.062 1559.17 374.304 1563.14 389.546 1568 415.171 1571.08 432.623 1574.17 450.074 1576.38 464.433 1577.7 479.013 1579.02 493.592 1578.14 507.068 1579.02 520.101 1579.9 533.134 1581.67 549.039 1582.99 557.213 1584.31 565.386 1579.68 565.607 1586.96 569.142 1594.24 572.677 1614.97 579.303 1626.66 578.42 1638.35 577.536 1649.37 570.467 1657.09 563.84 1664.81 557.213 1670.33 550.586 1672.97 538.657 1675.62 526.728 1674.3 514.578 1672.97 492.267 1671.65 469.956 1668.12 428.867 1665.03 404.789 1661.94 380.71 1658.64 367.456 1654.45 347.795 1650.26 328.135 1646.29 305.823 1639.89 286.825 1633.5 267.828 1623.79 251.26 1616.07 233.809 1608.35 216.357 1601.74 195.813 1593.58 182.117 1585.42 168.421 1577.26 160.689 1567.11 151.632 1556.97 142.575 1545.06 132.855 1532.71 127.774 1520.36 122.694 1505.14 118.938 1487.72 121.147Z" stroke="#6C4800" stroke-width="17.1875" stroke-miterlimit="8" fill="#996600" fill-rule="evenodd"/><path d="M1544.5 976.5C1544.5 959.931 1553.45 946.5 1564.5 946.5 1575.55 946.5 1584.5 959.931 1584.5 976.5 1584.5 993.068 1575.55 1006.5 1564.5 1006.5 1553.45 1006.5 1544.5 993.068 1544.5 976.5Z" stroke="#000000" stroke-width="4.58333" stroke-miterlimit="8" fill-rule="evenodd"/><path d="M1640.67 1050.38C1624.16 1069.39 1592.34 1068.8 1569.61 1049.05" stroke="#000000" stroke-width="11.4583" stroke-miterlimit="8" fill="none" fill-rule="evenodd"/><path d="M0 7.9999C-2.16435e-15 3.58168 3.80562 0 8.5001 0 13.1946-2.03699e-15 17.0002 3.58168 17.0002 7.9999 17.0002 12.4181 13.1946 15.9998 8.5001 15.9998 3.80562 15.9998-3.24653e-15 12.4181 0 7.9999Z" stroke="#FFFFFF" stroke-width="4.58333" stroke-miterlimit="8" fill="#FFFFFF" fill-rule="evenodd" transform="matrix(-1 0 0 1 1570.5 955.5)"/><path d="M1615.5 979.5C1615.5 962.931 1624.23 949.5 1635 949.5 1645.77 949.5 1654.5 962.931 1654.5 979.5 1654.5 996.069 1645.77 1009.5 1635 1009.5 1624.23 1009.5 1615.5 996.069 1615.5 979.5Z" stroke="#000000" stroke-width="4.58333" stroke-miterlimit="8" fill-rule="evenodd"/><path d="M0 8.00008C-2.03699e-15 3.58176 3.58168 0 7.9999 0 12.4181-2.03703e-15 15.9998 3.58176 15.9998 8.00008 15.9998 12.4184 12.4181 16.0002 7.9999 16.0002 3.58168 16.0002-3.05548e-15 12.4184 0 8.00008Z" stroke="#FFFFFF" stroke-width="4.58333" stroke-miterlimit="8" fill="#FFFFFF" fill-rule="evenodd" transform="matrix(-1 0 0 1 1640.5 958.5)"/></g></svg>